<svg version="1.2" xmlns="http://www.w3.org/2000/svg" viewBox="0 0 920 400" width="920" height="400">
	<defs>
		<clipPath clipPathUnits="userSpaceOnUse" id="cp1">
			<path d="m682.59 7.4l168.41 143.15h-336.83z"/>
		</clipPath>
	</defs>
	<g>
		<path id="EVERYDAY" fill-rule="evenodd" fill="#b8232a" stroke="#000000" stroke-miterlimit="10" stroke-width="2" d="m85.99 147h-38.12v-72.13h37.92v11.83h-18.08v16.1h13.49v12.27h-13.49v20.14h18.28zm39.35 0h-21.5l-13.64-72.13h16.67l7.52 47.72 6.9-47.72h17.93zm59.65 0h-38.12v-72.13h37.92v11.83h-18.08v16.1h13.49v12.27h-13.49v20.14h18.28zm27.72 0h-19.84v-72.13h24.19q5.18 0 9.14 0.48 4.01 0.48 7.63 1.74 3.66 1.26 5.96 3.39 2.34 2.09 3.71 5.48 1.37 3.35 1.37 7.92 0 7.27-2.05 11.57-2.05 4.31-7.87 7.01l11.05 34.54h-20.78l-8.4-31.89h-4.11zm0-60.47v18.88h5.18q4.89 0 6.75-2.48 1.9-2.52 1.9-7.13 0-4.44-1.81-6.83-1.76-2.44-5.86-2.44zm70.8 60.47h-19.02v-30.67l-14.81-41.46h18.72l6.41 19.32 5.32-19.32h17.94l-14.56 41.46zm42.76 0h-21.41v-72.13h21.36q8.36 0 13.74 1.26 5.42 1.22 8.65 4.09 3.23 2.87 4.5 7.09 1.32 4.18 1.32 10.58v26.01q0 6.44-1.32 10.66-1.27 4.18-4.5 7.09-3.23 2.87-8.65 4.13-5.38 1.22-13.69 1.22zm-1.56-59.95v47.77h1.86q2.54 0 4-0.35 1.52-0.39 2.25-1.35 0.78-0.95 0.98-2.08 0.24-1.18 0.24-3.27v-33.84q0-2.09-0.24-3.22-0.2-1.13-0.98-2.05-0.73-0.91-2.25-1.26-1.46-0.35-4-0.35zm54.26 59.95h-18.72l14.71-72.13h23.07l14.56 72.13h-18.13l-2.54-14.4h-10.51zm7.62-51.51l-3.61 26.93h7.28zm59.91 51.51h-19.01v-30.67l-14.81-41.46h18.72l6.4 19.32 5.33-19.32h17.94l-14.57 41.46z"/>
		<path id="PRODUCE" fill-rule="evenodd" fill="#b8232a" stroke="#000000" stroke-miterlimit="10" stroke-width="2" d="m67.71 229h-19.84v-72.13h29.32q10.8 0 16.28 5.44 5.47 5.44 5.47 15.75 0 5.3-1.37 9.18-1.32 3.87-3.47 6.13-2.1 2.26-5.42 3.61-3.33 1.35-6.65 1.78-3.27 0.44-7.62 0.44h-6.7zm0-59.78v17.75h6.3q4.01 0 5.19-2.13 1.17-2.17 1.17-7.18 0-1.43-0.1-2.43-0.1-1-0.49-2.22-0.34-1.22-1.02-1.96-0.69-0.78-1.96-1.3-1.22-0.53-2.98-0.53zm60 59.78h-19.85v-72.13h24.2q5.18 0 9.14 0.48 4.01 0.48 7.62 1.74 3.67 1.26 5.97 3.39 2.34 2.09 3.71 5.48 1.37 3.35 1.37 7.92 0 7.27-2.05 11.57-2.06 4.31-7.87 7.01l11.04 34.54h-20.77l-8.41-31.89h-4.1zm0-60.47v18.88h5.18q4.89 0 6.74-2.48 1.91-2.52 1.91-7.13 0-4.44-1.81-6.83-1.76-2.44-5.86-2.44zm78.03 60.04q-4.89 1.56-11.83 1.56-6.94 0-11.83-1.56-4.89-1.61-7.77-4.75-2.88-3.17-4.15-7.44-1.27-4.3-1.27-10.13v-26.63q0-5.83 1.27-10.09 1.27-4.31 4.15-7.44 2.88-3.17 7.77-4.74 4.89-1.61 11.83-1.61 6.94 0 11.83 1.61 4.94 1.57 7.82 4.74 2.93 3.13 4.2 7.44 1.32 4.26 1.32 10.09v26.63q0 5.83-1.32 10.13-1.27 4.27-4.2 7.44-2.88 3.14-7.82 4.75zm-11.83-10.66q1.61 0 2.64-0.61 1.03-0.65 1.47-1.87 0.44-1.22 0.53-2.22 0.15-1 0.15-2.48v-35.63q0-1.48-0.15-2.48-0.09-1-0.53-2.18-0.44-1.21-1.47-1.82-1.03-0.66-2.64-0.66-1.32 0-2.25 0.48-0.93 0.48-1.41 1.13-0.44 0.61-0.69 1.74-0.24 1.09-0.29 1.83 0 0.7 0 1.96v35.63q0 1.22 0 1.96 0.05 0.74 0.29 1.87 0.25 1.09 0.69 1.74 0.48 0.61 1.41 1.13 0.93 0.48 2.25 0.48zm57.36 11.09h-21.41v-72.13h21.36q8.36 0 13.74 1.26 5.42 1.22 8.65 4.09 3.22 2.87 4.49 7.09 1.32 4.18 1.32 10.57v26.02q0 6.44-1.32 10.66-1.27 4.18-4.49 7.09-3.23 2.87-8.65 4.13-5.38 1.22-13.69 1.22zm-1.56-59.95v47.77h1.85q2.55 0 4.01-0.35 1.52-0.39 2.25-1.35 0.78-0.95 0.98-2.09 0.24-1.17 0.24-3.26v-33.84q0-2.09-0.24-3.22-0.2-1.13-0.98-2.05-0.73-0.91-2.25-1.26-1.46-0.35-4.01-0.35zm64.35 61.08q-7.03 0-11.82-1.39-4.79-1.44-7.63-4.39-2.83-3.01-4.06-7.14-1.17-4.13-1.17-10v-50.34h19.75v53.29q0 1.48 0.14 2.53 0.15 1.04 0.59 2.3 0.44 1.22 1.52 1.92 1.07 0.65 2.68 0.65 1.62 0 2.69-0.65 1.08-0.7 1.52-1.92 0.44-1.26 0.54-2.3 0.14-1.05 0.14-2.53v-53.29h19.8v50.34q0 5.87-1.22 10-1.23 4.13-4.06 7.14-2.79 2.95-7.63 4.39-4.79 1.39-11.78 1.39zm60.91 0q-6.94 0-11.88-1.61-4.89-1.65-7.77-4.87-2.84-3.22-4.16-7.53-1.27-4.3-1.27-10.13v-26.06q0-5.87 1.27-10.18 1.32-4.31 4.16-7.53 2.88-3.22 7.77-4.83 4.94-1.65 11.88-1.65 5.52 0 9.72 1.04 4.21 1 6.9 2.83 2.73 1.79 4.44 4.48 1.71 2.66 2.4 5.7 0.73 3.05 0.73 6.79v6.48h-19.5v-7.92q0-1.56-0.1-2.48-0.1-0.95-0.54-2.17-0.39-1.26-1.41-1.87-1.03-0.66-2.64-0.66-1.32 0-2.3 0.48-0.93 0.48-1.42 1.13-0.49 0.66-0.78 1.74-0.24 1.09-0.34 1.92-0.05 0.83-0.05 1.96v35.5q0 1.13 0.05 2 0.1 0.82 0.39 1.91 0.29 1.05 0.78 1.74 0.49 0.65 1.42 1.13 0.98 0.44 2.25 0.44 1.61 0 2.64-0.61 1.02-0.65 1.41-1.92 0.44-1.26 0.54-2.17 0.1-0.96 0.1-2.52v-8.27h19.5v6.44q0 3.78-0.73 6.87-0.69 3.05-2.4 5.79-1.71 2.74-4.44 4.61-2.69 1.83-6.9 2.91-4.2 1.09-9.72 1.09zm71.02-1.13h-38.12v-72.13h37.93v11.83h-18.09v16.1h13.49v12.27h-13.49v20.14h18.28z"/>
		<path id="MARKET" fill-rule="evenodd" fill="#b8232a" stroke="#000000" stroke-miterlimit="10" stroke-width="2" d="m61.6 312h-14.03l1.32-72.13h21.61l7.38 37.11 8.21-37.11h20.72l1.32 72.13h-13.78l-1.57-46.77-8.26 46.77h-12.66l-8.94-47.2zm73.37 0h-18.72l14.71-72.13h23.07l14.57 72.13h-18.14l-2.54-14.4h-10.51zm7.63-51.51l-3.62 26.93h7.28zm54.12 51.51h-19.85v-72.13h24.2q5.18 0 9.14 0.48 4.01 0.47 7.62 1.74 3.67 1.26 5.97 3.39 2.34 2.09 3.71 5.48 1.37 3.35 1.37 7.92 0 7.26-2.05 11.57-2.06 4.31-7.87 7l11.04 34.55h-20.77l-8.41-31.89h-4.1zm0-60.47v18.88h5.18q4.89 0 6.74-2.48 1.91-2.52 1.91-7.14 0-4.43-1.81-6.83-1.76-2.43-5.86-2.43zm62 60.47h-19.85v-72.13h19.85v28.1l12.27-28.1h19.5l-14.71 32.76 14.9 39.37h-20.38l-10.56-31.24-1.02 1.13zm77.28 0h-38.13v-72.13h37.93v11.84h-18.08v16.09h13.49v12.27h-13.49v20.14h18.28zm35 0h-19.84v-59.07h-11.83v-13.06h43.45v13.06h-11.78z"/>
		<path id="WALDO TRADITION SINCE 1985" fill="#2f7a3a" aria-label="WALDO TRADITION SINCE 1985"  d="m54.7 342h-4.8l-3.1-25h4.7l1.5 14.5 1.9-14.5h3.7l2 14.5 1.5-14.5h4.6l-3 25h-4.8l-2.1-15.1zm18.1 0h-5.2l4.7-25.1h6.3l4.7 25.1h-5.1l-0.9-5.3h-3.7zm2.7-18.4l-1.3 9.8h2.7zm21.5 18.4h-11.2v-25.1h5.5v21.3h5.7zm9.2 0h-6.4v-25h6.3q3.3 0 5.1 0.8 1.8 0.8 2.6 2.6 0.7 1.7 0.7 4.5v9.1q0 2.8-0.7 4.6-0.8 1.8-2.6 2.6-1.8 0.8-5 0.8zm-0.9-21.2v17.4h0.9q1.2 0 1.8-0.4 0.5-0.4 0.7-1.1 0.1-0.7 0.1-1.8v-11q0-1.1-0.2-1.8-0.1-0.6-0.7-0.9-0.5-0.4-1.8-0.4zm19.7 21.6q-2.8 0-4.5-1-1.6-1-2.3-2.8-0.7-1.9-0.7-4.5v-9.3q0-2.6 0.7-4.4 0.7-1.8 2.3-2.8 1.7-1 4.5-1 2.8 0 4.5 1 1.6 1 2.3 2.8 0.7 1.8 0.7 4.4v9.3q0 2.6-0.7 4.5-0.7 1.8-2.3 2.8-1.7 1-4.5 1zm0-3.9q0.8 0 1.2-0.5 0.4-0.4 0.6-1.1 0.1-0.7 0.1-1.4v-12q0-0.8-0.1-1.4-0.2-0.7-0.6-1.1-0.4-0.5-1.2-0.5-0.8 0-1.2 0.5-0.4 0.4-0.6 1.1-0.1 0.6-0.1 1.4v12q0 0.7 0.1 1.4 0.1 0.7 0.5 1.1 0.4 0.5 1.3 0.5zm26.6 3.5h-5.5v-20.9h-3.8v-4.1h13.1v4.1h-3.8zm11.7 0h-5.5v-25.1h6.9q2.5 0 4.4 0.6 1.8 0.6 2.9 2 1 1.4 1 4.1 0 1.5-0.2 2.7-0.3 1.2-1 2.1-0.6 0.9-1.9 1.5l3.5 12.1h-5.7l-2.8-11.2h-1.6zm0-21.4v7h1.6q1.1 0 1.8-0.4 0.6-0.5 0.9-1.2 0.3-0.8 0.3-2 0-1.6-0.6-2.5-0.6-0.9-2.2-0.9zm16.5 21.4h-5.2l4.7-25.1h6.3l4.7 25.1h-5.1l-0.8-5.3h-3.7zm2.7-18.4l-1.4 9.8h2.7zm16.7 18.4h-6.4v-25.1h6.3q3.3 0 5.1 0.8 1.8 0.8 2.6 2.6 0.7 1.7 0.7 4.5v9.1q0 2.8-0.7 4.6-0.8 1.8-2.6 2.6-1.8 0.9-5 0.9zm-0.9-21.2v17.3h0.9q1.3 0 1.8-0.4 0.6-0.3 0.7-1.1 0.1-0.7 0.1-1.8v-10.9q0-1.1-0.1-1.8-0.2-0.7-0.8-1-0.5-0.3-1.7-0.3zm18 21.2h-5.6v-25.1h5.6zm12.2 0h-5.5v-20.9h-3.8v-4.1h13.1v4.1h-3.8zm10.8 0h-5.6v-25.1h5.6zm11.6 0.4q-2.8 0-4.5-1-1.6-1-2.3-2.8-0.7-1.9-0.7-4.4v-9.4q0-2.6 0.7-4.4 0.7-1.8 2.3-2.8 1.7-0.9 4.5-0.9 2.8 0 4.5 0.9 1.6 1 2.4 2.8 0.7 1.8 0.7 4.4v9.4q0 2.5-0.7 4.4-0.8 1.8-2.4 2.8-1.7 1-4.5 1zm0-3.9q0.9 0 1.3-0.5 0.4-0.4 0.5-1.1 0.1-0.6 0.1-1.4v-12q0-0.8-0.1-1.4-0.1-0.7-0.5-1.1-0.4-0.5-1.3-0.5-0.8 0-1.2 0.5-0.4 0.4-0.5 1.1-0.2 0.6-0.2 1.4v12q0 0.8 0.1 1.4 0.2 0.7 0.5 1.1 0.4 0.5 1.3 0.5zm15.5 3.5h-4.7v-25h3.9l5.1 12v-12h4.6v25h-3.7l-5.2-13zm27 0.4q-2.4 0-4-0.8-1.5-0.8-2.3-2.6-0.8-1.7-0.9-4.5l4.7-0.7q0 1.6 0.3 2.6 0.2 1 0.7 1.4 0.5 0.4 1.2 0.4 0.9 0 1.1-0.6 0.3-0.6 0.3-1.2 0-1.6-0.8-2.6-0.7-1.1-2-2.2l-2.1-1.9q-1.5-1.2-2.4-2.7-1-1.5-1-3.8 0-3.2 1.9-4.8 1.9-1.7 5.1-1.7 2 0 3.2 0.6 1.3 0.7 1.9 1.8 0.6 1.1 0.8 2.4 0.3 1.2 0.3 2.3l-4.7 0.6q-0.1-1.1-0.2-2-0.1-0.8-0.4-1.2-0.4-0.5-1.1-0.5-0.7 0-1.1 0.7-0.4 0.6-0.4 1.3 0 1.4 0.7 2.3 0.7 0.8 1.8 1.8l2 1.8q1.7 1.4 2.8 3.2 1.1 1.7 1.1 4.3 0 1.8-0.8 3.2-0.8 1.5-2.3 2.3-1.4 0.8-3.4 0.8zm14.9-0.4h-5.6v-25h5.6zm8.1 0h-4.7v-25h3.9l5.1 12v-12h4.6v25h-3.7l-5.2-13zm20.5 0.4q-2.9 0-4.5-1-1.7-1.1-2.3-2.9-0.7-1.9-0.7-4.5v-9q0-2.6 0.7-4.4 0.6-1.9 2.3-2.9 1.6-1.1 4.5-1.1 2.8 0 4.3 1 1.6 0.9 2.2 2.5 0.7 1.6 0.7 3.8v2.1h-5.4v-2.5q0-0.7-0.1-1.4-0.1-0.7-0.4-1.1-0.4-0.5-1.3-0.5-0.9 0-1.3 0.5-0.4 0.5-0.5 1.2-0.1 0.7-0.1 1.4v11.8q0 0.8 0.1 1.6 0.2 0.6 0.6 1.1 0.4 0.4 1.2 0.4 0.9 0 1.2-0.5 0.4-0.4 0.5-1.1 0.1-0.8 0.1-1.5v-2.6h5.4v2.1q0 2.2-0.7 3.9-0.6 1.6-2.2 2.6-1.5 1-4.3 1zm21.1-0.4h-11.3v-25h11.3v3.8h-5.7v6.2h4.3v3.8h-4.3v7.5h5.7zm18.1 0h-5.1v-20q-0.4 0.2-0.8 0.4-0.4 0.2-0.9 0.4-0.5 0.2-1 0.4-0.4 0.2-0.8 0.4v-3.9q0.4-0.2 1-0.5 0.6-0.3 1.3-0.7 0.7-0.4 1.4-0.8 0.6-0.5 0.9-0.8h4zm10.8 0.4q-2.4 0-3.8-0.7-1.4-0.8-1.9-2.2-0.6-1.5-0.6-3.6 0 0 0-0.1 0-0.2 0-0.3h4.8q0 1.6 0.2 2.3 0.3 0.7 1.4 0.7 0.7 0 1-0.4 0.4-0.5 0.4-1.5 0.2-1.1 0.2-3.1v-2.2q-0.4 0.7-1.3 1-0.8 0.3-1.8 0.4-2 0-3.2-1-1.2-1-1.7-2.7-0.5-1.8-0.5-3.8 0-2.6 0.6-4.5 0.7-1.9 2.2-3 1.5-1 4-1 2.5 0 4 0.9 1.5 1 2.2 2.8 0.7 1.8 0.7 4.2v9.3q0 2.5-0.6 4.4-0.5 1.9-2 3-1.5 1.1-4.3 1.1zm0.1-13.7q0.6 0 1-0.3 0.4-0.3 0.6-0.6v-4.1q0-0.9-0.2-1.6-0.1-0.7-0.4-1.2-0.4-0.4-1.1-0.4-0.6 0-1 0.5-0.3 0.4-0.5 1.4 0 0.9 0 2.3 0 1.2 0 2.1 0.1 0.9 0.4 1.4 0.4 0.5 1.2 0.5zm15.9 13.7q-2.5 0-4-1-1.6-1-2.2-2.7-0.7-1.8-0.7-4.1 0.1-0.9 0.2-1.8 0.2-0.9 0.5-1.6 0.4-0.8 0.9-1.4 0.6-0.6 1.3-0.9-0.9-0.7-1.7-2.1-0.7-1.3-0.8-3.4 0-2.1 0.7-3.6 0.8-1.5 2.2-2.3 1.5-0.8 3.6-0.8 2.2 0 3.6 0.8 1.4 0.8 2.2 2.3 0.7 1.5 0.6 3.6 0 2.1-0.7 3.5-0.8 1.3-1.7 2 0.7 0.3 1.2 0.9 0.6 0.6 0.9 1.4 0.4 0.7 0.6 1.6 0.2 0.9 0.2 1.8 0 2.3-0.7 4.1-0.6 1.7-2.1 2.7-1.5 1-4.1 1zm0-3.8q0.8 0 1.2-0.6 0.4-0.6 0.5-1.4 0.1-0.9 0.1-1.6 0-1-0.1-1.9-0.1-0.9-0.5-1.4-0.4-0.6-1.2-0.6-0.8 0-1.2 0.6-0.3 0.5-0.5 1.4-0.1 0.9-0.1 1.9 0 0.7 0.1 1.6 0.1 0.8 0.5 1.4 0.4 0.6 1.2 0.6zm0-11.6q0.5 0 0.9-0.4 0.3-0.4 0.5-1.3 0.1-0.8 0.1-2 0-1.3-0.4-2-0.3-0.8-1.1-0.8-0.8 0-1.2 0.8-0.4 0.7-0.4 1.9 0 1.3 0.1 2.1 0.2 0.9 0.6 1.3 0.4 0.4 0.9 0.4zm15.8 15.5q-2.7 0-4.1-1-1.4-0.9-1.9-2.7-0.5-1.8-0.5-4.1h5q0 1.4 0.1 2.3 0.2 0.9 0.6 1.3 0.4 0.4 1.2 0.4 0.8-0.1 1.1-0.7 0.4-0.6 0.4-1.7 0.1-1.2 0.1-2.9 0-1.2-0.1-2.2-0.2-0.9-0.6-1.5-0.4-0.6-1.2-0.6-0.8 0-1.3 0.6-0.5 0.6-0.7 1.7h-4.5l0.5-14.4h11.7v4.3h-7.5l-0.3 5.2q0.3-0.4 1.1-0.8 0.9-0.3 1.9-0.4 1.9-0.2 3.2 0.7 1.3 0.9 2 2.8 0.7 1.8 0.7 4.5 0 2-0.3 3.7-0.2 1.7-0.9 2.9-0.7 1.2-2.1 1.9-1.4 0.7-3.6 0.7z"/>
	</g>
	<g>
		<g id="Clip-Path" clip-path="url(#cp1)">
			<!-- green stripe 1 -->
			<path fill="#2f7a3a" d="m514.17 7.40h336.83000000000004v23.86h-336.83000000000004z"/>
			<!-- cream stripe 1 -->
			<path fill="#f5edd8" d="m514.17 31.26h336.83000000000004v23.86h-336.83000000000004z"/>
			<!-- green stripe 2 -->
			<path fill="#2f7a3a" d="m514.17 55.12h336.83000000000004v23.86h-336.83000000000004z"/>
			<!-- cream stripe 2 -->
			<path fill="#f5edd8" d="m514.17 78.98h336.83000000000004v23.86h-336.83000000000004z"/>
			<!-- green stripe 3 -->
			<path fill="#2f7a3a" d="m514.17 102.83h336.83000000000004v23.86h-336.83000000000004z"/>
			<!-- cream stripe 3 -->
			<path fill="#f5edd8" d="m514.17 126.69h336.83000000000004v23.86h-336.83000000000004z"/>
		</g>
		</g>
		<path fill="none" stroke="#2a1a0e" stroke-width="3.4" d="m682.59 7.4l168.41 143.15h-336.83z"/>
		<path fill="#000000" stroke="#5a3518" stroke-linecap="square" stroke-width="5.1" d="m522.59 150.55v206.31"/>
		<path fill="#000000" stroke="#5a3518" stroke-linecap="square" stroke-width="5.1" d="m842.58 150.55v206.31"/>
		<path fill="#000000" stroke="#2a1a0e" stroke-width="1.7" d="m522.59 150.55v206.31"/>
		<path fill="#000000" stroke="#2a1a0e" stroke-width="1.7" d="m842.58 150.55v206.31"/>
		<path fill="#000000" stroke="#5a3518" stroke-width="3.4" d="m522.59 154.76h319.99"/>
		<path fill="#000000" stroke="#2a1a0e" stroke-width=".8" d="m522.59 154.76h319.99"/>
		<g>
			<path fill="#000000" stroke="#2a1a0e" stroke-width="2" d="m587.85 150.55v25.26"/>
			<path fill="#7a4a28" stroke="#2a1a0e" stroke-width="3.4" d="m566.8 175.81h42.1l-4.21 25.27h-33.68z"/>
			<path fill="#5a3518" stroke="#2a1a0e" stroke-width="3.4" d="m611.01 171.6v6.32h-46.31v-6.32z"/>
			<path fill="#b8232a" stroke="#2a1a0e" stroke-width="1.7" d="m579.43 174.76c-2.91 0-5.26-2.35-5.26-5.26 0-2.91 2.35-5.26 5.26-5.26 2.91 0 5.27 2.35 5.27 5.26 0 2.91-2.36 5.26-5.27 5.26z"/>
			<path fill="#b8232a" stroke="#2a1a0e" stroke-width="1.7" d="m596.27 174.76c-2.91 0-5.26-2.35-5.26-5.26 0-2.91 2.35-5.26 5.26-5.26 2.91 0 5.27 2.35 5.27 5.26 0 2.91-2.36 5.26-5.27 5.26z"/>
			<path fill="#b8232a" stroke="#2a1a0e" stroke-width="1.7" d="m587.85 168.45c-2.91 0-5.26-2.36-5.26-5.27 0-2.91 2.35-5.26 5.26-5.26 2.91 0 5.27 2.35 5.27 5.26 0 2.91-2.36 5.27-5.27 5.27z"/>
		</g>
		<g>
			<path fill="#000000" stroke="#2a1a0e" stroke-width="2" d="m682.59 150.55v25.26"/>
			<path fill="#7a4a28" stroke="#2a1a0e" stroke-width="3.4" d="m661.53 175.81h42.11l-4.21 25.27h-33.69z"/>
			<path fill="#5a3518" stroke="#2a1a0e" stroke-width="3.4" d="m705.74 171.6v6.32h-46.31v-6.32z"/>
			<path fill="#f2c438" stroke="#2a1a0e" stroke-width="1.7" d="m674.17 174.76c-2.92 0-5.27-2.35-5.27-5.26 0-2.91 2.35-5.26 5.27-5.26 2.91 0 5.26 2.35 5.26 5.26 0 2.91-2.35 5.26-5.26 5.26z"/>
			<path fill="#f2c438" stroke="#2a1a0e" stroke-width="1.7" d="m691.01 174.76c-2.91 0-5.27-2.35-5.27-5.26 0-2.91 2.36-5.26 5.27-5.26 2.91 0 5.26 2.35 5.26 5.26 0 2.91-2.35 5.26-5.26 5.26z"/>
			<path fill="#f2c438" stroke="#2a1a0e" stroke-width="1.7" d="m682.59 168.45c-2.91 0-5.27-2.36-5.27-5.27 0-2.91 2.36-5.26 5.27-5.26 2.91 0 5.26 2.35 5.26 5.26 0 2.91-2.35 5.27-5.26 5.27z"/>
		</g>
		<g>
			<path fill="#000000" stroke="#2a1a0e" stroke-width="2" d="m777.32 150.55v25.26"/>
			<path fill="#7a4a28" stroke="#2a1a0e" stroke-width="3.4" d="m756.27 175.81h42.1l-4.21 25.27h-33.68z"/>
			<path fill="#5a3518" stroke="#2a1a0e" stroke-width="3.4" d="m800.48 171.6v6.32h-46.32v-6.32z"/>
			<path fill="#b8232a" stroke="#2a1a0e" stroke-width="1.7" d="m768.9 174.76c-2.91 0-5.26-2.35-5.26-5.26 0-2.91 2.35-5.26 5.26-5.26 2.91 0 5.26 2.35 5.26 5.26 0 2.91-2.35 5.26-5.26 5.26z"/>
			<path fill="#b8232a" stroke="#2a1a0e" stroke-width="1.7" d="m785.74 174.76c-2.91 0-5.26-2.35-5.26-5.26 0-2.91 2.35-5.26 5.26-5.26 2.91 0 5.26 2.35 5.26 5.26 0 2.91-2.35 5.26-5.26 5.26z"/>
			<path fill="#b8232a" stroke="#2a1a0e" stroke-width="1.7" d="m777.32 168.45c-2.91 0-5.26-2.36-5.26-5.27 0-2.91 2.35-5.26 5.26-5.26 2.91 0 5.26 2.35 5.26 5.26 0 2.91-2.35 5.27-5.26 5.27z"/>
		</g>
		<path fill="#7a4a28" stroke="#2a1a0e" stroke-width="3.4" d="m842.58 272.65v16.84h-319.99v-16.84z"/>
		<path fill="#5a3518" stroke="#2a1a0e" stroke-width="2.5" d="m543.64 289.49v58.95h-8.42v-58.95z"/>
		<path fill="#5a3518" stroke="#2a1a0e" stroke-width="2.5" d="m829.95 289.49v58.95h-8.42v-58.95z"/>
		<path fill="#5a3518" stroke="#2a1a0e" stroke-width="2.5" d="m686.8 289.49v58.95h-8.42v-58.95z"/>
		<path fill="#7a4a28" stroke="#2a1a0e" stroke-width="3.4" d="m556.28 251.6h88.41l-8.42 21.05h-71.57z"/>
		<path fill="#000000" stroke="#5a3518" stroke-width="1.7" d="m573.12 255.81l-4.21 16.84"/>
		<path fill="#000000" stroke="#5a3518" stroke-width="1.7" d="m589.96 255.81l-2.11 16.84"/>
		<path fill="#000000" stroke="#5a3518" stroke-width="1.7" d="m606.8 255.81v16.84"/>
		<path fill="#000000" stroke="#5a3518" stroke-width="1.7" d="m623.64 255.81l2.11 16.84"/>
		<path fill="#b8232a" stroke="#2a1a0e" stroke-width="3.4" d="m577.33 255.81c-6.99 0-12.63-5.65-12.63-12.63 0-6.99 5.64-12.63 12.63-12.63 6.98 0 12.63 5.64 12.63 12.63 0 6.98-5.65 12.63-12.63 12.63z"/>
		<path fill="#b8232a" stroke="#2a1a0e" stroke-width="3.4" d="m600.48 250.55c-7.56 0-13.68-6.12-13.68-13.69 0-7.56 6.12-13.68 13.68-13.68 7.57 0 13.69 6.12 13.69 13.68 0 7.57-6.12 13.69-13.69 13.69z"/>
		<path fill="#b8232a" stroke="#2a1a0e" stroke-width="3.4" d="m623.64 255.81c-6.98 0-12.63-5.65-12.63-12.63 0-6.99 5.65-12.63 12.63-12.63 6.99 0 12.63 5.64 12.63 12.63 0 6.98-5.64 12.63-12.63 12.63z"/>
		<path fill="#2f7a3a" stroke="#2a1a0e" stroke-width="1.7" d="m575.22 232.65l4.21-6.31 4.21 6.31z"/>
		<path fill="#2f7a3a" stroke="#2a1a0e" stroke-width="1.7" d="m598.38 226.34l4.21-6.32 4.21 6.32z"/>
		<path fill="#2f7a3a" stroke="#2a1a0e" stroke-width="1.7" d="m621.54 232.65l4.21-6.31 4.21 6.31z"/>
		<path fill="#f2c438" stroke="#2a1a0e" stroke-width="3.4" d="m720.48 266.34c-8.15 0-14.74-6.59-14.74-14.74 0-8.15 6.59-14.74 14.74-14.74 8.15 0 14.74 6.59 14.74 14.74 0 8.15-6.59 14.74-14.74 14.74z"/>
		<path fill="#f2c438" stroke="#2a1a0e" stroke-width="3.4" d="m749.95 266.34c-8.15 0-14.73-6.59-14.73-14.74 0-8.15 6.58-14.74 14.73-14.74 8.15 0 14.74 6.59 14.74 14.74 0 8.15-6.59 14.74-14.74 14.74z"/>
		<path fill="#f2c438" stroke="#2a1a0e" stroke-width="3.4" d="m779.42 266.34c-8.15 0-14.73-6.59-14.73-14.74 0-8.15 6.58-14.74 14.73-14.74 8.15 0 14.74 6.59 14.74 14.74 0 8.15-6.59 14.74-14.74 14.74z"/>
		<path fill="#f2c438" stroke="#2a1a0e" stroke-width="3.4" d="m808.9 266.34c-8.15 0-14.74-6.59-14.74-14.74 0-8.15 6.59-14.74 14.74-14.74 8.15 0 14.73 6.59 14.73 14.74 0 8.15-6.58 14.74-14.73 14.74z"/>
		<path fill="#f2c438" stroke="#2a1a0e" stroke-width="3.4" d="m735.22 283.18c-8.15 0-14.74-6.59-14.74-14.74 0-8.15 6.59-14.73 14.74-14.73 8.14 0 14.73 6.58 14.73 14.73 0 8.15-6.59 14.74-14.73 14.74z"/>
		<path fill="#f2c438" stroke="#2a1a0e" stroke-width="3.4" d="m764.69 283.18c-8.15 0-14.74-6.59-14.74-14.74 0-8.15 6.59-14.73 14.74-14.73 8.15 0 14.73 6.58 14.73 14.73 0 8.15-6.58 14.74-14.73 14.74z"/>
		<path fill="#f2c438" stroke="#2a1a0e" stroke-width="3.4" d="m794.16 283.18c-8.15 0-14.74-6.59-14.74-14.74 0-8.15 6.59-14.73 14.74-14.73 8.15 0 14.74 6.58 14.74 14.73 0 8.15-6.59 14.74-14.74 14.74z"/>
		<path fill="#f2c438" stroke="#2a1a0e" stroke-width="3.4" d="m749.95 247.39c-6.98 0-12.63-5.65-12.63-12.63 0-6.99 5.65-12.63 12.63-12.63 6.99 0 12.63 5.64 12.63 12.63 0 6.98-5.64 12.63-12.63 12.63z"/>
		<path fill="#f2c438" stroke="#2a1a0e" stroke-width="3.4" d="m779.42 247.39c-6.98 0-12.63-5.65-12.63-12.63 0-6.99 5.65-12.63 12.63-12.63 6.99 0 12.64 5.64 12.64 12.63 0 6.98-5.65 12.63-12.64 12.63z"/>
		<path fill="#f2c438" stroke="#2a1a0e" stroke-width="3.4" d="m764.69 231.6c-6.41 0-11.58-5.17-11.58-11.58 0-6.4 5.17-11.58 11.58-11.58 6.4 0 11.58 5.18 11.58 11.58 0 6.41-5.18 11.58-11.58 11.58z"/>
		<path opacity=".3" fill="#000000" stroke="#2a1a0e" stroke-width="1.7" d="m514.17 361.07h336.83"/>
		<g>
			<path fill="#1f5228" stroke="#2a1a0e" stroke-width="3.4" d="m619.43 373.7c-20.95 0-37.89-7.53-37.89-16.84 0-9.31 16.94-16.84 37.89-16.84 20.96 0 37.89 7.53 37.89 16.84 0 9.31-16.93 16.84-37.89 16.84z"/>
			<path fill="none" stroke="#3d8a4a" stroke-width="2.5" d="m589.96 352.65q8.42-8.42 16.84 0"/>
			<path fill="none" stroke="#3d8a4a" stroke-width="2.5" d="m611.01 350.54q8.42-8.42 16.84 0"/>
			<path fill="none" stroke="#3d8a4a" stroke-width="2.5" d="m632.06 352.65q8.42-8.42 16.84 0"/>
		</g>
		<g>
			<path fill="#1f5228" stroke="#2a1a0e" stroke-width="3.4" d="m682.59 382.12c-20.96 0-37.9-7.53-37.9-16.84 0-9.31 16.94-16.84 37.9-16.84 20.95 0 37.89 7.53 37.89 16.84 0 9.31-16.94 16.84-37.89 16.84z"/>
			<path fill="none" stroke="#3d8a4a" stroke-width="2.5" d="m653.11 361.07q8.42-8.42 16.85 0"/>
			<path fill="none" stroke="#3d8a4a" stroke-width="2.5" d="m674.17 358.96q8.42-8.42 16.84 0"/>
			<path fill="none" stroke="#3d8a4a" stroke-width="2.5" d="m695.22 361.07q8.42-8.42 16.84 0"/>
		</g>
		<g>
			<path fill="#1f5228" stroke="#2a1a0e" stroke-width="3.4" d="m745.74 373.7c-20.95 0-37.89-7.53-37.89-16.84 0-9.31 16.94-16.84 37.89-16.84 20.96 0 37.89 7.53 37.89 16.84 0 9.31-16.93 16.84-37.89 16.84z"/>
			<path fill="none" stroke="#3d8a4a" stroke-width="2.5" d="m716.27 352.65q8.42-8.42 16.84 0"/>
			<path fill="none" stroke="#3d8a4a" stroke-width="2.5" d="m737.32 350.54q8.42-8.42 16.84 0"/>
			<path fill="none" stroke="#3d8a4a" stroke-width="2.5" d="m758.37 352.65q8.42-8.42 16.84 0"/>
		</g>
</svg>