<?xml version="1.0" encoding="UTF-8"?>
<!-- Concept A dark v5: matches light v5 structure. Cream ring + top text, tan bottom arc, gold 1985 + stars. -->
<svg xmlns="http://www.w3.org/2000/svg" viewBox="0 0 400 400" role="img" aria-label="Everyday Produce stamp, light-on-dark">
  <defs>
    <style>
      .ring-outer { fill: none; stroke: #faf7f2; stroke-width: 6; }
      .ring-inner { fill: none; stroke: #faf7f2; stroke-width: 3; }
      .arc-text {
        font-family: 'Playfair Display', Georgia, serif;
        font-weight: 700;
        font-size: 24px;
        fill: #faf7f2;
        letter-spacing: 0.16em;
      }
      .arc-text-bottom {
        font-family: 'DM Sans', sans-serif;
        font-weight: 600;
        font-size: 16px;
        fill: #c8b693;
        letter-spacing: 0.28em;
      }
      .center-year {
        font-family: 'Playfair Display', Georgia, serif;
        font-weight: 800;
        font-size: 64px;
        fill: #d4a843;
        text-anchor: middle;
      }
      .center-sub {
        font-family: 'DM Sans', sans-serif;
        font-weight: 600;
        font-size: 16px;
        fill: #c8b693;
        text-anchor: middle;
        letter-spacing: 0.28em;
      }
      .star { fill: #d4a843; }
    </style>
    <path id="arc-top-d" d="M 56,200 A 144,144 0 0 1 344,200" fill="none" />
    <path id="arc-bottom-d" d="M 52,208 A 156,156 0 0 0 348,208" fill="none" />
  </defs>

  <circle class="ring-outer" cx="200" cy="200" r="184"/>
  <circle class="ring-inner" cx="200" cy="200" r="166"/>

  <text class="arc-text">
    <textPath href="#arc-top-d" startOffset="50%" text-anchor="middle">EVERYDAY PRODUCE</textPath>
  </text>
  <text class="arc-text-bottom">
    <textPath href="#arc-bottom-d" startOffset="50%" text-anchor="middle">WALDO · KANSAS CITY</textPath>
  </text>

  <g class="star">
    <polygon points="40,190 42.35,197.24 50,197.24 43.82,201.71 46.18,208.95 40,204.49 33.82,208.95 36.18,201.71 30,197.24 37.65,197.24"/>
    <polygon points="360,190 362.35,197.24 370,197.24 363.82,201.71 366.18,208.95 360,204.49 353.82,208.95 356.18,201.71 350,197.24 357.65,197.24"/>
  </g>

  <text class="center-sub" x="200" y="160">— EST —</text>
  <text class="center-year" x="200" y="224">1985</text>
  <text class="center-sub" x="200" y="256">HAND PICKED LOCAL</text>
</svg>
