<?xml version="1.0" encoding="utf-8"?>
<svg xmlns="http://www.w3.org/2000/svg" viewBox="0 0 500 500" xmlns:bx="https://boxy-svg.com">
  <defs>
    <path id="arc-top" d="M 56,200 A 144,144 0 0 1 344,200" fill="none"/>
    <path id="arc-bottom" d="M 36.329 231.187 C 64.464 346.346 231.18 405.941 324.993 297.671 C 338.794 281.743 353.009 237.823 359.671 217.828" fill="none"/>
    <bx:guide x="146.192" y="96.437" angle="90"/>
  </defs>
  <circle class="bg" cx="216.302" cy="206.206" r="190" style="fill: rgb(250, 247, 242); stroke-width: 1;"/>
  <circle class="ring-outer" cx="216.302" cy="206.206" r="184" style="fill: none; stroke: rgb(61, 122, 74); stroke-width: 6;"/>
  <circle class="ring-inner" cx="216.302" cy="206.206" r="166" style="fill: none; stroke: rgb(61, 122, 74); stroke-width: 3;"/>
  <text class="arc-text" style="white-space: pre; fill: rgb(44, 36, 23); font-family: &quot;Playfair Display&quot;, Georgia, serif; font-size: 24px; font-weight: 700; letter-spacing: 3.84px; line-height: 38.4px; perspective-origin: 170.438px 83.8906px;" transform="matrix(1, 0, 0, 1, 16.302208, 6.206387)">
    <textPath href="#arc-top" startOffset="50%" text-anchor="middle">EVERYDAY PRODUCE</textPath>
  </text>
  <text class="arc-text-bottom" style="white-space: pre; fill: rgb(92, 74, 50); font-family: &quot;DM Sans&quot;, sans-serif; font-weight: 600; letter-spacing: 4.48px; perspective-origin: 167.5px 157.422px;" transform="matrix(1, 0, 0, 1, 16.302208, 6.206387)">
    <textPath href="#arc-bottom" startOffset="50%" text-anchor="middle">WALDO · KANSAS CITY</textPath>
  </text>
  <g class="star" style="fill: rgb(212, 168, 67);" transform="matrix(1, 0, 0, 1, 16.302208, 6.206387)">
    <polygon points="56 147 58.35 154.24 66 154.24 59.82 158.71 62.18 165.95 56 161.49 49.82 165.95 52.18 158.71 46 154.24 53.65 154.24"/>
    <polygon points="344 145 346.35 152.24 354 152.24 347.82 156.71 350.18 163.95 344 159.49 337.82 163.95 340.18 156.71 334 152.24 341.65 152.24"/>
  </g>
  <text class="center-sub" x="216.302" y="149.206" style="white-space: pre; fill: rgb(92, 74, 50); font-family: &quot;DM Sans&quot;, sans-serif; font-weight: 600; letter-spacing: 4.48px; perspective-origin: 126.562px 79.9844px; text-anchor: middle; stroke-width: 1; font-size: 16px;">— EST —</text>
  <text class="center-year" x="216.302" y="213.206" style="white-space: pre; fill: rgb(61, 122, 74); font-family: &quot;Playfair Display&quot;, Georgia, serif; font-size: 64px; font-weight: 800; line-height: 102.4px; perspective-origin: 139.062px 112px; text-anchor: middle; stroke-width: 1;">1985</text>
  <text class="center-sub" x="216.302" y="245.206" style="white-space: pre; fill: rgb(92, 74, 50); font-family: &quot;DM Sans&quot;, sans-serif; font-weight: 600; letter-spacing: 4.48px; perspective-origin: 162.5px 128px; text-anchor: middle; stroke-width: 1; font-size: 16px;">HAND PICKED LOCAL</text>
</svg>